<svg width="28" height="21" viewBox="0 0 28 21" fill="none" xmlns="http://www.w3.org/2000/svg">
<path d="M25.9305 0H2.14637C1.6793 0.000560118 1.23154 0.17067 0.901274 0.473027C0.571007 0.775384 0.385194 1.18531 0.384583 1.6129V15.3226C0.385194 15.7502 0.571007 16.1601 0.901274 16.4625C1.23154 16.7648 1.6793 16.9349 2.14637 16.9355H11.2251L10.6376 18.5484H9.19352C9.0767 18.5484 8.96467 18.5909 8.88207 18.6665C8.79947 18.7421 8.75307 18.8447 8.75307 18.9516V19.7581H4.78905C4.67224 19.7581 4.56021 19.8005 4.47761 19.8762C4.39501 19.9518 4.3486 20.0543 4.3486 20.1613C4.3486 20.2682 4.39501 20.3708 4.47761 20.4464C4.56021 20.522 4.67224 20.5645 4.78905 20.5645H24.1687C24.2855 20.5645 24.3975 20.522 24.4801 20.4464C24.5627 20.3708 24.6091 20.2682 24.6091 20.1613C24.6091 20.0543 24.5627 19.9518 24.4801 19.8762C24.3975 19.8005 24.2855 19.7581 24.1687 19.7581H19.3238V18.9516C19.3238 18.8447 19.2774 18.7421 19.1948 18.6665C19.1122 18.5909 19.0002 18.5484 18.8833 18.5484H17.4392L16.8518 16.9355H25.9305C26.3976 16.9349 26.8453 16.7648 27.1756 16.4625C27.5058 16.1601 27.6917 15.7502 27.6923 15.3226V1.6129C27.6917 1.18531 27.5058 0.775384 27.1756 0.473027C26.8453 0.17067 26.3976 0.000560118 25.9305 0ZM18.4429 19.3548V19.7581H9.63396V19.3548H18.4429ZM11.5664 18.5484L12.1539 16.9355H15.923L16.5104 18.5484H11.5664ZM26.8114 15.3226C26.8111 15.5364 26.7182 15.7413 26.553 15.8925C26.3879 16.0437 26.164 16.1288 25.9305 16.129H2.14637C1.91284 16.1288 1.68895 16.0437 1.52382 15.8925C1.35869 15.7413 1.26578 15.5364 1.26548 15.3226V14.5161H26.8114V15.3226ZM7.85346 10.0806L7.68829 13.7097H7.17517L7.01 10.0806H7.85346ZM7.07056 9.27419L7.36456 7.66129H7.4989L7.79289 9.27419H7.07056ZM7.43173 6.85484C6.95439 6.85484 6.55084 6.30091 6.55084 5.64516C6.55084 5.23135 7.0122 4.63004 7.43063 4.20615C7.80776 4.58921 8.31262 5.20161 8.31262 5.64516C8.31262 6.30091 7.90906 6.85484 7.43173 6.85484ZM12.2249 6.04839L12.2766 6.14365V6.45161H10.5149V6.14365L10.5666 6.04839H12.2249ZM11.0071 5.24194L11.3957 4.53075L11.7844 5.24194H11.0071ZM12.2766 7.25806V13.6593C12.2768 13.6761 12.2781 13.693 12.2805 13.7097H10.511C10.5134 13.693 10.5147 13.6761 10.5149 13.6593V7.25806H12.2766ZM16.2407 5.64516H17.562V6.45161H17.1216C17.0047 6.45161 16.8927 6.4941 16.8101 6.56971C16.7275 6.64533 16.6811 6.7479 16.6811 6.85484C16.6811 6.96178 16.7275 7.06434 16.8101 7.13996C16.8927 7.21558 17.0047 7.25806 17.1216 7.25806H17.562V8.06452H16.2407C16.1238 8.06452 16.0118 8.107 15.9292 8.18262C15.8466 8.25824 15.8002 8.3608 15.8002 8.46774C15.8002 8.57468 15.8466 8.67725 15.9292 8.75287C16.0118 8.82849 16.1238 8.87097 16.2407 8.87097H17.562V9.67742H17.1216C17.0047 9.67742 16.8927 9.7199 16.8101 9.79552C16.7275 9.87114 16.6811 9.9737 16.6811 10.0806C16.6811 10.1876 16.7275 10.2901 16.8101 10.3658C16.8927 10.4414 17.0047 10.4839 17.1216 10.4839H17.562V11.2903H16.2407C16.1238 11.2903 16.0118 11.3328 15.9292 11.4084C15.8466 11.484 15.8002 11.5866 15.8002 11.6935C15.8002 11.8005 15.8466 11.9031 15.9292 11.9787C16.0118 12.0543 16.1238 12.0968 16.2407 12.0968H17.562V13.7097H14.4789V4.03226H17.562V4.83871H16.2407C16.1238 4.83871 16.0118 4.88119 15.9292 4.95681C15.8466 5.03243 15.8002 5.13499 15.8002 5.24194C15.8002 5.34888 15.8466 5.45144 15.9292 5.52706C16.0118 5.60268 16.1238 5.64516 16.2407 5.64516ZM21.526 10.4839V13.6593C21.5262 13.6761 21.5275 13.693 21.5299 13.7097H19.7604C19.7628 13.693 19.7641 13.6761 19.7642 13.6593V10.4839H21.526ZM19.7642 9.67742V9.36946L20.6451 7.75655L21.526 9.36946V9.67742H19.7642ZM26.8114 13.7097H22.4031C22.4055 13.693 22.4067 13.6761 22.4069 13.6593V9.27419C22.4069 9.21159 22.391 9.14985 22.3607 9.09375L21.0393 6.6744C21.0027 6.60743 20.9464 6.55113 20.8768 6.51178C20.8071 6.47243 20.7269 6.4516 20.6451 6.4516C20.5633 6.4516 20.4831 6.47243 20.4135 6.51178C20.3439 6.55113 20.2876 6.60743 20.2509 6.6744L18.9296 9.09375C18.8992 9.14985 18.8834 9.21159 18.8833 9.27419V13.6593C18.8835 13.6761 18.8848 13.693 18.8872 13.7097H18.4429V3.62903C18.4429 3.52209 18.3965 3.41953 18.3139 3.34391C18.2313 3.26829 18.1193 3.22581 18.0024 3.22581H14.0384C13.9216 3.22581 13.8096 3.26829 13.727 3.34391C13.6444 3.41953 13.598 3.52209 13.598 3.62903V13.7097H13.1537C13.1561 13.693 13.1574 13.6761 13.1575 13.6593V6.04839C13.1575 5.98579 13.1416 5.92404 13.1113 5.86794L11.7899 3.44859C11.7533 3.38163 11.697 3.32532 11.6274 3.28598C11.5578 3.24663 11.4776 3.22579 11.3957 3.22579C11.3139 3.22579 11.2337 3.24663 11.1641 3.28598C11.0945 3.32532 11.0382 3.38163 11.0015 3.44859L9.68021 5.86794C9.64985 5.92404 9.63403 5.98579 9.63396 6.04839V13.6593C9.63413 13.6761 9.63542 13.693 9.63782 13.7097H8.56973L8.75252 9.69405C8.75307 9.68498 8.75252 9.67591 8.75252 9.66633V9.65423C8.7515 9.64004 8.74966 9.62591 8.74701 9.61189V9.61089L8.3396 7.37248C8.85107 7.01915 9.19352 6.37702 9.19352 5.64516C9.19352 4.60887 7.88153 3.46119 7.73178 3.33367C7.65017 3.26442 7.543 3.22594 7.43173 3.22594C7.32045 3.22594 7.21328 3.26442 7.13167 3.33367C6.98192 3.46119 5.66994 4.60887 5.66994 5.64516C5.66994 6.37702 6.01239 7.01915 6.52386 7.37248L6.11645 9.61089V9.61189C6.1138 9.62591 6.11196 9.64004 6.11094 9.65423V9.66633C6.11094 9.67591 6.11039 9.68498 6.11094 9.69405L6.29373 13.7097H1.26548V1.6129C1.26578 1.3991 1.35869 1.19414 1.52382 1.04297C1.68895 0.891787 1.91284 0.806732 2.14637 0.806452H25.9305C26.164 0.806732 26.3879 0.891787 26.553 1.04297C26.7182 1.19414 26.8111 1.3991 26.8114 1.6129V13.7097Z" fill="white"/>
<path d="M5.22955 14.9193H2.58687C2.47006 14.9193 2.35803 14.9618 2.27543 15.0374C2.19283 15.113 2.14642 15.2156 2.14642 15.3225C2.14642 15.4295 2.19283 15.532 2.27543 15.6077C2.35803 15.6833 2.47006 15.7258 2.58687 15.7258H5.22955C5.34636 15.7258 5.45839 15.6833 5.54099 15.6077C5.62359 15.532 5.67 15.4295 5.67 15.3225C5.67 15.2156 5.62359 15.113 5.54099 15.0374C5.45839 14.9618 5.34636 14.9193 5.22955 14.9193Z" fill="white"/>
<path d="M6.99131 14.9193H6.55086C6.43405 14.9193 6.32202 14.9618 6.23942 15.0374C6.15682 15.113 6.11041 15.2156 6.11041 15.3225C6.11041 15.4295 6.15682 15.532 6.23942 15.6077C6.32202 15.6833 6.43405 15.7258 6.55086 15.7258H6.99131C7.10812 15.7258 7.22015 15.6833 7.30275 15.6077C7.38535 15.532 7.43175 15.4295 7.43175 15.3225C7.43175 15.2156 7.38535 15.113 7.30275 15.0374C7.22015 14.9618 7.10812 14.9193 6.99131 14.9193Z" fill="white"/>
<path d="M11.3954 7.66125C11.2787 7.66125 11.1667 7.70374 11.0842 7.77936C11.0017 7.85498 10.9553 7.95754 10.9553 8.06448V12.5C10.9553 12.6069 11.0017 12.7095 11.0842 12.7851C11.1667 12.8607 11.2787 12.9032 11.3954 12.9032C11.5121 12.9032 11.624 12.8607 11.7066 12.7851C11.7891 12.7095 11.8354 12.6069 11.8354 12.5V8.06448C11.8354 7.95754 11.7891 7.85498 11.7066 7.77936C11.624 7.70374 11.5121 7.66125 11.3954 7.66125Z" fill="white"/>
<path d="M20.6448 10.8871C20.5281 10.8871 20.4161 10.9296 20.3336 11.0052C20.2511 11.0808 20.2047 11.1834 20.2047 11.2903V12.5C20.2047 12.6069 20.2511 12.7095 20.3336 12.7851C20.4161 12.8607 20.5281 12.9032 20.6448 12.9032C20.7615 12.9032 20.8734 12.8607 20.9559 12.7851C21.0385 12.7095 21.0848 12.6069 21.0848 12.5V11.2903C21.0848 11.1834 21.0385 11.0808 20.9559 11.0052C20.8734 10.9296 20.7615 10.8871 20.6448 10.8871Z" fill="white"/>
<path d="M2.58687 2.41937H6.11044C6.22726 2.41937 6.33929 2.37688 6.42189 2.30126C6.50449 2.22564 6.55089 2.12308 6.55089 2.01614C6.55089 1.9092 6.50449 1.80664 6.42189 1.73102C6.33929 1.6554 6.22726 1.61292 6.11044 1.61292H2.58687C2.47006 1.61292 2.35803 1.6554 2.27543 1.73102C2.19283 1.80664 2.14642 1.9092 2.14642 2.01614C2.14642 2.12308 2.19283 2.22564 2.27543 2.30126C2.35803 2.37688 2.47006 2.41937 2.58687 2.41937Z" fill="white"/>
<path d="M2.58687 3.62908H3.46776C3.58458 3.62908 3.69661 3.5866 3.77921 3.51098C3.86181 3.43536 3.90821 3.3328 3.90821 3.22586C3.90821 3.11892 3.86181 3.01635 3.77921 2.94073C3.69661 2.86511 3.58458 2.82263 3.46776 2.82263H2.58687C2.47006 2.82263 2.35803 2.86511 2.27543 2.94073C2.19283 3.01635 2.14642 3.11892 2.14642 3.22586C2.14642 3.3328 2.19283 3.43536 2.27543 3.51098C2.35803 3.5866 2.47006 3.62908 2.58687 3.62908Z" fill="white"/>
<path d="M23.7282 12.9033H25.49C25.6068 12.9033 25.7189 12.8608 25.8015 12.7852C25.8841 12.7095 25.9305 12.607 25.9305 12.5C25.9305 12.3931 25.8841 12.2905 25.8015 12.2149C25.7189 12.1393 25.6068 12.0968 25.49 12.0968H23.7282C23.6114 12.0968 23.4994 12.1393 23.4168 12.2149C23.3342 12.2905 23.2878 12.3931 23.2878 12.5C23.2878 12.607 23.3342 12.7095 23.4168 12.7852C23.4994 12.8608 23.6114 12.9033 23.7282 12.9033Z" fill="white"/>
<path d="M25.0496 11.6935H25.4901C25.6069 11.6935 25.7189 11.6511 25.8015 11.5754C25.8841 11.4998 25.9305 11.3973 25.9305 11.2903C25.9305 11.1834 25.8841 11.0808 25.8015 11.0052C25.7189 10.9296 25.6069 10.8871 25.4901 10.8871H25.0496C24.9328 10.8871 24.8208 10.9296 24.7382 11.0052C24.6556 11.0808 24.6092 11.1834 24.6092 11.2903C24.6092 11.3973 24.6556 11.4998 24.7382 11.5754C24.8208 11.6511 24.9328 11.6935 25.0496 11.6935Z" fill="white"/>
</svg>
