<svg width="16" height="25" viewBox="0 0 16 25" fill="none" xmlns="http://www.w3.org/2000/svg">
<path d="M13.462 0H2.36829C1.91582 0.000542615 1.48205 0.165337 1.1621 0.458245C0.842159 0.751153 0.662153 1.14827 0.66156 1.5625V22.6562C0.662153 23.0705 0.842159 23.4676 1.1621 23.7605C1.48205 24.0534 1.91582 24.2182 2.36829 24.2188H13.462C13.9145 24.2182 14.3483 24.0534 14.6682 23.7605C14.9882 23.4676 15.1682 23.0705 15.1688 22.6562V1.5625C15.1682 1.14827 14.9882 0.751153 14.6682 0.458245C14.3483 0.165337 13.9145 0.000542615 13.462 0ZM9.91204 0.78125L9.67203 1.5625H6.1151L5.90176 0.78125H9.91204ZM14.3154 22.6562C14.3151 22.8634 14.2251 23.0619 14.0651 23.2084C13.9052 23.3548 13.6883 23.4372 13.462 23.4375H2.36829C2.14206 23.4372 1.92517 23.3548 1.7652 23.2084C1.60522 23.0619 1.51522 22.8634 1.51493 22.6562V1.5625C1.51522 1.35538 1.60522 1.15683 1.7652 1.01037C1.92517 0.863918 2.14206 0.781521 2.36829 0.78125H5.02172L5.36787 2.04785C5.39094 2.13236 5.44421 2.20738 5.5192 2.261C5.59419 2.31461 5.6866 2.34374 5.78175 2.34375H9.99524C10.0882 2.34375 10.1787 2.31594 10.2528 2.26455C10.3269 2.21317 10.3807 2.14102 10.4059 2.05908L10.7985 0.78125H13.462C13.6883 0.781521 13.9052 0.863918 14.0651 1.01037C14.2251 1.15683 14.3151 1.35538 14.3154 1.5625V22.6562Z" fill="white"/>
<path d="M5.78175 21.875H2.79497C2.68181 21.875 2.57328 21.9162 2.49326 21.9894C2.41324 22.0627 2.36829 22.162 2.36829 22.2656C2.36829 22.3692 2.41324 22.4686 2.49326 22.5418C2.57328 22.6151 2.68181 22.6562 2.79497 22.6562H5.78175C5.89491 22.6562 6.00344 22.6151 6.08346 22.5418C6.16348 22.4686 6.20843 22.3692 6.20843 22.2656C6.20843 22.162 6.16348 22.0627 6.08346 21.9894C6.00344 21.9162 5.89491 21.875 5.78175 21.875Z" fill="white"/>
<path d="M7.48844 21.875H7.06175C6.94859 21.875 6.84006 21.9162 6.76004 21.9894C6.68002 22.0627 6.63507 22.162 6.63507 22.2656C6.63507 22.3692 6.68002 22.4686 6.76004 22.5418C6.84006 22.6151 6.94859 22.6562 7.06175 22.6562H7.48844C7.6016 22.6562 7.71013 22.6151 7.79015 22.5418C7.87017 22.4686 7.91512 22.3692 7.91512 22.2656C7.91512 22.162 7.87017 22.0627 7.79015 21.9894C7.71013 21.9162 7.6016 21.875 7.48844 21.875Z" fill="white"/>
<path d="M9.41475 9.82123C9.36671 9.79484 9.31345 9.77737 9.25803 9.76982C9.2026 9.76227 9.1461 9.76479 9.09174 9.77723C9.03738 9.78967 8.98623 9.81179 8.94121 9.84233C8.89618 9.87287 8.85817 9.91123 8.82935 9.95522L6.26924 13.8615C6.21102 13.9503 6.19373 14.0567 6.22118 14.1572C6.24862 14.2577 6.31856 14.3441 6.41559 14.3974C6.51263 14.4507 6.62882 14.4665 6.73861 14.4414C6.8484 14.4163 6.94278 14.3522 7.001 14.2634L9.56111 10.3572C9.58994 10.3132 9.60902 10.2644 9.61727 10.2137C9.62551 10.1629 9.62276 10.1112 9.60917 10.0615C9.59558 10.0117 9.57142 9.96486 9.53806 9.92364C9.5047 9.88242 9.4628 9.84762 9.41475 9.82123Z" fill="white"/>
<path d="M10.8084 9.91206C10.7733 9.87201 10.73 9.83866 10.6809 9.81392C10.6318 9.78918 10.5779 9.77354 10.5222 9.76788C10.4097 9.75646 10.2969 9.78643 10.2085 9.85118C10.1201 9.91593 10.0635 10.0102 10.051 10.1132C10.0385 10.2161 10.0713 10.3194 10.142 10.4003L11.6354 12.1093L10.142 13.8183C10.0713 13.8992 10.0385 14.0025 10.051 14.1055C10.0635 14.2085 10.1201 14.3027 10.2085 14.3675C10.2969 14.4322 10.4097 14.4622 10.5222 14.4508C10.6347 14.4394 10.7376 14.3875 10.8084 14.3066L12.5151 12.3535C12.5757 12.2842 12.6087 12.1981 12.6087 12.1093C12.6087 12.0206 12.5757 11.9345 12.5151 11.8652L10.8084 9.91206Z" fill="white"/>
<path d="M5.02183 14.3066C5.09256 14.3875 5.19549 14.4393 5.30799 14.4508C5.42048 14.4622 5.53333 14.4322 5.62169 14.3675C5.71006 14.3027 5.76671 14.2085 5.77918 14.1055C5.79166 14.0025 5.75893 13.8992 5.6882 13.8183L4.19481 12.1093L5.6882 10.4003C5.72322 10.3603 5.74928 10.3143 5.76489 10.265C5.7805 10.2158 5.78536 10.1641 5.77918 10.1131C5.77301 10.0622 5.75592 10.0128 5.7289 9.96782C5.70188 9.92287 5.66545 9.88324 5.62169 9.85118C5.57794 9.81911 5.52771 9.79526 5.47389 9.78097C5.42006 9.76667 5.36369 9.76223 5.30799 9.76788C5.25229 9.77354 5.19834 9.78918 5.14925 9.81392C5.10015 9.83866 5.05685 9.87201 5.02183 9.91206L3.3151 11.8652C3.25451 11.9345 3.2215 12.0206 3.2215 12.1093C3.2215 12.1981 3.25451 12.2842 3.3151 12.3535L5.02183 14.3066Z" fill="white"/>
</svg>
