<svg width="28" height="24" viewBox="0 0 28 24" fill="none" xmlns="http://www.w3.org/2000/svg">
<path d="M0.384583 0V20.5205H9.14929V21.9877H7.54731V23.4526H20.5295V21.9877H18.9275V20.5205H27.6923V0H0.384583ZM17.3274 21.9877H10.7495V20.5205H17.3274V21.9877H17.3274ZM26.0922 19.0556H1.9847V16.1222H26.0921V19.0556H26.0922ZM26.0922 14.6573H1.9847V1.46494H26.0921V14.6573H26.0922Z" fill="white"/>
<path d="M11.262 5.4134L10.1305 4.37756L6.10693 8.06111L10.1305 11.7446L11.262 10.7088L8.36985 8.06111L11.262 5.4134Z" fill="white"/>
<path d="M17.9464 4.37756L16.8149 5.4134L19.707 8.06111L16.8149 10.7088L17.9464 11.7446L21.9699 8.06111L17.9464 4.37756Z" fill="white"/>
<path d="M14.181 3.64371L12.325 12.1931L13.8944 12.4791L15.7504 3.92977L14.181 3.64371Z" fill="white"/>
</svg>
